<svg height="200px" viewBox="-5.5 -5.5 280 200" width="280px" xmlns="http://www.w3.org/2000/svg"><g><rect fill="none" height="40" stroke="black" width="70" x="0" y="0" /><line stroke="black" x1="49.0" x2="49.0" y1="0" y2="40" /><line stroke="black" x1="0" x2="70" y1="20.0" y2="20.0" /><text x="7.0" y="16.0">RNG</text><text x="56.0" y="16.0">3</text><text x="7.0" y="36.0">FNC</text><text x="56.0" y="36.0">1</text></g><g><rect fill="none" height="40" stroke="black" width="70" x="0" y="50" /><line stroke="black" x1="49.0" x2="49.0" y1="50" y2="90" /><line stroke="black" x1="0" x2="70" y1="70.0" y2="70.0" /><text x="7.0" y="66.0">SKT</text><text x="56.0" y="66.0">3</text><text x="7.0" y="86.0">MSF</text><text x="56.0" y="86.0">2</text></g><g><rect fill="none" height="40" stroke="black" width="70" x="0" y="100" /><line stroke="black" x1="49.0" x2="49.0" y1="100" y2="140" /><line stroke="black" x1="0" x2="70" y1="120.0" y2="120.0" /><text x="7.0" y="116.0">WE</text><text x="56.0" y="116.0">3</text><text x="7.0" y="136.0">C9</text><text x="56.0" y="136.0">2</text></g><g><rect fill="none" height="40" stroke="black" width="70" x="0" y="150" /><line stroke="black" x1="49.0" x2="49.0" y1="150" y2="190" /><line stroke="black" x1="0" x2="70" y1="170.0" y2="170.0" /><text x="7.0" y="166.0">LZ</text><text x="56.0" y="166.0">0</text><text x="7.0" y="186.0">SSG</text><text x="56.0" y="186.0">3</text></g><g><rect fill="none" height="40" stroke="black" width="70" x="100" y="25" /><line stroke="black" x1="149.0" x2="149.0" y1="25" y2="65" /><line stroke="black" x1="100" x2="170" y1="45.0" y2="45.0" /><text x="107.0" y="41.0">RNG</text><text x="156.0" y="41.0">2</text><text x="107.0" y="61.0">SKT</text><text x="156.0" y="61.0">3</text></g><g><rect fill="none" height="40" stroke="black" width="70" x="100" y="125" /><line stroke="black" x1="149.0" x2="149.0" y1="125" y2="165" /><line stroke="black" x1="100" x2="170" y1="145.0" y2="145.0" /><text x="107.0" y="141.0">WE</text><text x="156.0" y="141.0">1</text><text x="107.0" y="161.0">SSG</text><text x="156.0" y="161.0">3</text></g><g><rect fill="none" height="40" stroke="black" width="70" x="200" y="75" /><line stroke="black" x1="249.0" x2="249.0" y1="75" y2="115" /><line stroke="black" x1="200" x2="270" y1="95.0" y2="95.0" /><text x="207.0" y="91.0">SKT</text><text x="256.0" y="91.0">0</text><text x="207.0" y="111.0">SSG</text><text x="256.0" y="111.0">3</text></g><polyline fill="none" points="70,20 85,20 85,35 100,35" stroke="black" /><polyline fill="none" points="70,70 85,70 85,55 100,55" stroke="black" /><polyline fill="none" points="70,120 85,120 85,135 100,135" stroke="black" /><polyline fill="none" points="70,170 85,170 85,155 100,155" stroke="black" /><polyline fill="none" points="170,45 185,45 185,85 200,85" stroke="black" /><polyline fill="none" points="170,145 185,145 185,105 200,105" stroke="black" /></svg>